<svg id="Layer_1" enable-background="new 0 0 512 512" height="512" viewBox="0 0 512 512" width="512" xmlns="http://www.w3.org/2000/svg"><g><path d="m428.372 440.794h-352.366v38.618c0 17.923 14.665 32.588 32.588 32.588h318.847c4.704 0 8.553-3.849 8.553-8.554v-56.622z" fill="#f9f6f9"/><path d="m121.735 479.412v-38.618h-45.729v38.618c0 17.923 14.665 32.588 32.588 32.588h45.728c-17.923 0-32.587-14.665-32.587-32.588z" fill="#cbe2ff"/><path d="m423.658 0h-301.923l-8.94 7.433v439.392h323.199v-434.489c0-6.813-5.523-12.336-12.336-12.336z" fill="#61a2f9"/><path d="m160.697 0h-38.962l-8.94 7.433v439.391h47.902z" fill="#0094fd"/><path d="m121.735 0h-13.141c-17.923 0-32.588 14.665-32.588 32.588v446.824c0-17.923 14.665-32.588 32.588-32.588h13.141z" fill="#80b4fb"/><path d="m98.87 32.588c0-14.54 9.652-26.934 22.864-31.096v-1.492h-13.141c-17.922 0-32.587 14.665-32.587 32.588v446.824c0-14.54 9.652-26.935 22.864-31.096z" fill="#61a2f9"/><path d="m206.369 209.862s24.038 23.351 80.869 23.351c56.832 0 70.911-25.468 70.911-25.468l2.075-4.226v-42.379l-5.165-3.646-73.103 26.956-73.526-26.956-4.743 3.646v43.611z" fill="#6e60b8"/><path d="m234.699 167.126-26.27-9.631-4.743 3.646v43.611l2.683 5.11s8.811 8.537 28.33 15.287z" fill="#6353b2"/><g><path d="m355.571 317.397h-147.232c-4.267 0-7.726-3.459-7.726-7.726s3.459-7.726 7.726-7.726h147.232c4.267 0 7.726 3.459 7.726 7.726s-3.459 7.726-7.726 7.726z" fill="#cbe2ff"/></g><g><path d="m355.571 350.865h-147.232c-4.267 0-7.726-3.459-7.726-7.726s3.459-7.726 7.726-7.726h147.232c4.267 0 7.726 3.459 7.726 7.726s-3.459 7.726-7.726 7.726z" fill="#cbe2ff"/></g><g><path d="m334.033 384.332h-104.157c-4.267 0-7.726-3.459-7.726-7.726s3.459-7.726 7.726-7.726h104.157c4.267 0 7.726 3.459 7.726 7.726s-3.459 7.726-7.726 7.726z" fill="#cbe2ff"/></g><g><path d="m334.033 62.067h-104.157c-4.267 0-7.726-3.459-7.726-7.726s3.459-7.726 7.726-7.726h104.157c4.267 0 7.726 3.459 7.726 7.726s-3.459 7.726-7.726 7.726z" fill="#cbe2ff"/></g><path d="m206.719 236.329c18.827 17.757 48.404 25.788 75.236 25.788 31.178 0 58.715-10.204 75.236-25.788 1.934-1.824 3.032-4.361 3.032-7.02v-29.985c-.001 2.656-1.099 5.193-3.032 7.016-16.522 15.583-44.058 25.788-75.236 25.788s-58.715-10.204-75.236-25.788c-1.934-1.824-3.032-4.362-3.032-7.02v29.989c-.001 2.658 1.098 5.196 3.032 7.02z" fill="#ffd064"/><path d="m234.699 223.529c-11.076-4.38-20.622-10.249-27.98-17.189-1.934-1.824-3.032-4.362-3.032-7.02v29.989c0 2.658 1.099 5.196 3.032 7.02 7.8 7.357 17.449 13.039 27.98 17.178z" fill="#ffc250"/><path d="m396.516 144.187-107.89-39.375c-4.309-1.572-9.034-1.572-13.343 0l-107.89 39.375c-1.73.631-1.73 3.078 0 3.71l107.89 39.375c4.309 1.572 9.034 1.572 13.343 0l107.89-39.375c1.73-.632 1.73-3.079 0-3.71z" fill="#8479c2"/><path d="m308.985 116.348c2.542-.928 5.22-1.325 7.884-1.229l-28.243-10.307c-4.309-1.572-9.034-1.572-13.343 0l-107.89 39.375c-1.73.631-1.73 3.078 0 3.709l27.573 10.063z" fill="#6e60b8"/><g><path d="m167.393 256.671c-4.267 0-7.726-3.459-7.726-7.726v-102.904c0-4.267 3.459-7.726 7.726-7.726h114.561c4.267 0 7.726 3.459 7.726 7.726s-3.459 7.726-7.726 7.726h-106.834v95.177c0 4.268-3.46 7.727-7.727 7.727z" fill="#9790cc"/></g><path d="m167.692 237.745c-8.748-.164-15.908 7.266-15.908 16.016v15.853c0 1.16.725 2.197 1.815 2.595l5.925 2.163c5.082 1.855 10.655 1.854 15.737 0l5.925-2.163c1.09-.398 1.815-1.434 1.815-2.595v-16.262c.002-8.522-6.826-15.448-15.309-15.607z" fill="#ffd064"/><path d="m167.393 273.326v-17.7c0-6.4 3.443-12.151 8.557-15.316-2.381-1.566-5.209-2.508-8.259-2.566-8.748-.164-15.908 7.266-15.908 16.016v15.853c0 1.16.725 2.197 1.815 2.595l5.926 2.162c2.903 1.059 5.966 1.492 9.007 1.341-.704-.573-1.138-1.44-1.138-2.385z" fill="#ffc250"/><g><path d="m281.955 160.636c-4.267 0-7.726-3.459-7.726-7.726v-13.907c0-4.267 3.459-7.726 7.726-7.726s7.726 3.459 7.726 7.726v13.907c0 4.266-3.459 7.726-7.726 7.726z" fill="#9790cc"/></g></g></svg>